<svg width="290" height="385" viewBox="0 0 290 385" fill="none" xmlns="http://www.w3.org/2000/svg">
<path fill-rule="evenodd" clip-rule="evenodd" d="M64.03 163.005C64.03 139.536 72.5607 117.029 87.7456 100.434C102.93 83.8395 123.526 74.5166 145 74.5166C166.475 74.5166 187.07 83.8395 202.255 100.434C217.44 117.029 225.97 139.536 225.97 163.005C225.97 186.474 217.44 208.981 202.255 225.576C187.07 242.171 166.475 251.493 145 251.493C123.526 251.493 102.93 242.171 87.7456 225.576C72.5607 208.981 64.03 186.474 64.03 163.005ZM145 102.46C130.307 102.46 116.216 108.839 105.826 120.193C95.4363 131.548 89.5995 146.948 89.5995 163.005C89.5995 179.062 95.4363 194.462 105.826 205.817C116.216 217.171 130.307 223.55 145 223.55C159.693 223.55 173.785 217.171 184.174 205.817C194.564 194.462 200.401 179.062 200.401 163.005C200.401 146.948 194.564 131.548 184.174 120.193C173.785 108.839 159.693 102.46 145 102.46Z" fill="#0F6F24"/>
<path fill-rule="evenodd" clip-rule="evenodd" d="M0.515409 141.712C3.42908 103.09 19.5259 67.0778 45.61 40.8253C71.6941 14.5728 105.858 -0.000118026 141.318 7.1693e-10H148.682C184.143 -0.000118026 218.306 14.5728 244.39 40.8253C270.475 67.0778 286.571 103.09 289.485 141.712C292.727 184.732 280.566 227.448 255.563 260.864L173.86 370.049C170.363 374.722 165.96 378.487 160.969 381.073C155.978 383.659 150.524 385 145 385C139.477 385 134.022 383.659 129.031 381.073C124.04 378.487 119.637 374.722 116.141 370.049L34.4376 260.864C9.43263 227.449 -2.72876 184.732 0.515409 141.712ZM141.318 27.9437C112.28 27.9485 84.3039 39.8855 62.9446 61.3853C41.5853 82.885 28.4038 112.376 26.0167 144.003C23.3166 179.806 33.4368 215.356 54.2455 243.166L135.949 352.37C137.047 353.839 138.43 355.023 139.999 355.836C141.567 356.649 143.281 357.071 145.017 357.071C146.753 357.071 148.467 356.649 150.036 355.836C151.604 355.023 152.988 353.839 154.086 352.37L235.789 243.166C256.586 215.351 266.693 179.801 263.984 144.003C261.596 112.372 248.413 82.8792 227.05 61.3789C205.687 39.8787 177.707 27.9438 148.665 27.9437H141.318Z" fill="#0F6F24"/>
</svg>
