<svg width="230" height="120" viewBox="5 20 240 120" fill="none" xmlns="http://www.w3.org/2000/svg">
  <text x="50%" y="73%" font-size="30" font-family="Georgia, serif" font-style="italic" fill="#B49E60" text-anchor="middle">
    Casa Alice
  </text>
  
  <path d="M125 131.352C185.751 131.352 235 110.1 235 83.8851C235 57.67 185.751 36.4185 125 36.4185C64.2487 36.4185 15 57.67 15 83.8851C15 110.1 64.2487 131.352 125 131.352Z" stroke="#DFCE86" stroke-width="4"/>
  
  <path d="M125 127.26C185.751 127.26 235 106.008 235 79.7933C235 53.5782 185.751 32.3267 125 32.3267C64.2487 32.3267 15 53.5782 15 79.7933C15 106.008 64.2487 127.26 125 127.26Z" stroke="#AFBC9C" stroke-width="5"/>
  
  <path d="M100 106.902C109.667 99.4004 119.333 99.4004 129 106.902C138.667 114.404 148.333 114.404 158 106.902" stroke="#DBC38B" stroke-width="2"/>
  
  <path d="M111.5 107.414C112.328 107.414 113 106.727 113 105.879C113 105.032 112.328 104.345 111.5 104.345C110.672 104.345 110 105.032 110 105.879C110 106.727 110.672 107.414 111.5 107.414Z" fill="#DBC38B"/>
  
  <path d="M145.5 109.46C146.328 109.46 147 108.773 147 107.925C147 107.078 146.328 106.391 145.5 106.391C144.672 106.391 144 107.078 144 107.925C144 108.773 144.672 109.46 145.5 109.46Z" fill="#DBC38B"/>
</svg>

