<svg width="408" height="408" viewBox="0 0 408 408" fill="green" xmlns="http://www.w3.org/2000/svg">
<g filter="url(#filter0_d_2005_16)" >
<path d="M204.804 0.00119139C95.0553 0.00119139 5.60804 89.0009 5.60804 198.201C5.60804 233.2 14.8543 267.2 32.1407 297.2L4 400L109.528 372.4C138.673 388.2 171.437 396.6 204.804 396.6C314.553 396.6 404 307.6 404 198.401C404 145.401 383.296 95.6009 345.709 58.201C327.28 39.6796 305.33 24.9945 281.138 15.0022C256.947 5.00986 230.997 -0.089602 204.804 0.00119139ZM205.005 33.4011C249.226 33.4011 290.633 50.601 321.99 81.801C337.379 97.108 349.58 115.287 357.893 135.296C366.205 155.305 370.467 176.75 370.432 198.401C370.432 289.2 296.06 363 204.804 363C175.055 363 145.91 355.2 120.583 340L114.553 336.6L51.8392 353L68.5226 292.2L64.5025 285.8C47.8983 259.574 39.1158 229.197 39.1759 198.201C39.3769 107.401 113.548 33.4011 205.005 33.4011ZM134.251 106.601C131.035 106.601 125.608 107.801 120.985 112.801C116.563 117.801 103.497 130.001 103.497 154.201C103.497 178.601 121.387 202.001 123.598 205.401C126.412 208.801 158.975 258.8 209.025 280C220.884 285.4 230.131 288.4 237.367 290.6C249.226 294.4 260.08 293.8 268.724 292.6C278.372 291.2 298.07 280.6 302.291 269C306.513 257.4 306.513 247.6 305.307 245.4C303.9 243.4 300.683 242.2 295.658 240C290.633 237.2 266.111 225.201 261.688 223.601C257.065 222.001 254.251 221.201 250.432 226.001C247.216 231.001 237.568 242.2 234.754 245.4C231.739 248.8 228.925 249.2 224.101 246.8C218.874 244.2 202.794 239 183.899 222.201C169.025 209.001 159.176 192.801 156.161 187.801C153.749 183.001 155.96 180.001 158.372 177.801C160.583 175.601 163.799 172.001 165.809 169.001C168.422 166.201 169.226 164.001 170.834 160.801C172.442 157.401 171.638 154.601 170.432 152.201C169.226 150.001 159.176 125.201 154.955 115.401C150.935 105.801 146.915 107.001 143.698 106.801C140.884 106.801 137.668 106.601 134.251 106.601Z" fill="black"/>
<path d="M204.804 0.501194L204.806 0.501188C230.933 0.410624 256.817 5.49724 280.948 15.4643C305.078 25.4314 326.973 40.0793 345.354 58.5537L345.356 58.5555C382.85 95.8615 403.5 145.534 403.5 198.401C403.5 307.322 314.279 396.1 204.804 396.1C171.521 396.1 138.839 387.721 109.766 371.961L109.592 371.866L109.401 371.916L4.71076 399.297L32.623 297.332L32.678 297.131L32.5739 296.951C15.3308 267.026 6.10804 233.112 6.10804 198.201C6.10804 89.2794 95.329 0.501191 204.804 0.501194ZM51.357 352.868L51.1279 353.703L51.9657 353.484L114.483 337.135L120.326 340.429C120.328 340.43 120.33 340.431 120.332 340.433C145.738 355.678 174.971 363.5 204.804 363.5C296.333 363.5 370.932 289.48 370.932 198.401C370.967 176.684 366.693 155.174 358.354 135.104C350.016 115.034 337.778 96.7999 322.343 81.4465C290.893 50.154 249.359 32.9011 205.005 32.9011C113.273 32.9011 38.8775 107.123 38.6759 198.199C38.6156 229.291 47.4247 259.76 64.0791 286.066C64.0794 286.067 64.0798 286.067 64.0801 286.068L67.9823 292.28L51.357 352.868ZM209.232 279.545L209.22 279.54C163.956 260.367 133.039 217.57 125.541 207.192C124.79 206.151 124.274 205.437 124.002 205.104C123.804 204.802 123.494 204.356 123.092 203.778C121.151 200.986 117.068 195.115 113.164 187.449C108.431 178.155 103.997 166.287 103.997 154.201C103.997 132.094 114.979 120.109 120.169 114.445C120.61 113.964 121.009 113.528 121.356 113.136C125.867 108.26 131.149 107.101 134.251 107.101C135.951 107.101 137.602 107.151 139.185 107.201L139.418 107.208C140.908 107.255 142.34 107.301 143.683 107.301C144.094 107.326 144.5 107.331 144.903 107.336C146.186 107.352 147.448 107.368 148.807 108.026C150.559 108.875 152.505 110.846 154.494 115.594L154.496 115.599C156.294 119.773 159.151 126.674 161.933 133.392C162.414 134.553 162.892 135.708 163.362 136.842C164.958 140.692 166.46 144.306 167.638 147.095C168.804 149.854 169.668 151.843 169.989 152.433C171.157 154.76 171.895 157.383 170.385 160.582C170.101 161.146 169.844 161.676 169.599 162.181C168.438 164.571 167.548 166.404 165.444 168.66L165.416 168.689L165.394 168.722C163.411 171.681 160.225 175.25 158.027 177.439C156.803 178.555 155.576 179.923 154.984 181.665C154.382 183.434 154.457 185.523 155.714 188.025L155.723 188.042L155.733 188.059C158.751 193.065 168.633 209.321 183.567 222.574C199.379 236.633 213.254 242.613 220.428 245.704C221.856 246.32 223.018 246.821 223.878 247.248C226.323 248.464 228.341 249.016 230.172 248.771C232.019 248.524 233.577 247.481 235.128 245.732L235.129 245.731C237.93 242.546 247.584 231.341 250.839 226.292C252.696 223.964 254.242 223.076 255.815 222.897C257.44 222.713 259.187 223.264 261.522 224.072C263.706 224.863 270.908 228.246 278.229 231.8C285.543 235.352 292.917 239.045 295.415 240.437L295.436 240.449L295.458 240.458C296.072 240.728 296.658 240.981 297.215 241.222C298.949 241.972 300.407 242.603 301.611 243.22C303.188 244.03 304.248 244.778 304.881 245.664C305.122 246.122 305.338 247.046 305.439 248.422C305.54 249.798 305.523 251.564 305.336 253.63C304.963 257.763 303.917 263.07 301.822 268.829C299.769 274.47 293.907 279.945 287.273 284.205C280.65 288.457 273.381 291.419 268.652 292.105C260.044 293.3 249.276 293.891 237.519 290.124L237.512 290.122C230.287 287.925 221.064 284.933 209.232 279.545Z" stroke="black"/>
</g>
<defs>
<filter id="filter0_d_2005_16" x="0" y="0" width="408" height="408" filterUnits="userSpaceOnUse" color-interpolation-filters="sRGB">
<feFlood flood-opacity="0" result="BackgroundImageFix"/>
<feColorMatrix in="SourceAlpha" type="matrix" values="0 0 0 0 0 0 0 0 0 0 0 0 0 0 0 0 0 0 127 0" result="hardAlpha"/>
<feOffset dy="4"/>
<feGaussianBlur stdDeviation="2"/>
<feComposite in2="hardAlpha" operator="out"/>
<feColorMatrix type="matrix" values="0 0 0 0 0 0 0 0 0 0 0 0 0 0 0 0 0 0 0.25 0"/>
<feBlend mode="normal" in2="BackgroundImageFix" result="effect1_dropShadow_2005_16"/>
<feBlend mode="normal" in="SourceGraphic" in2="effect1_dropShadow_2005_16" result="shape"/>
</filter>
</defs>
</svg>
